<mxfile host="app.diagrams.net" agent="Mozilla/5.0 (Windows NT 10.0; Win64; x64) AppleWebKit/537.36 (KHTML, like Gecko) Chrome/134.0.0.0 Safari/537.36 Edg/134.0.0.0/1laB5WpH-43" version="26.1.2">
  <diagram name="Page-1" id="tsOy3v51XqxMtDomg62a">
    <mxGraphModel dx="477" dy="253" grid="1" gridSize="10" guides="1" tooltips="1" connect="1" arrows="1" fold="1" page="1" pageScale="1" pageWidth="1169" pageHeight="827" math="0" shadow="0">
      <root>
        <mxCell id="0" />
        <mxCell id="1" parent="0" />
        <mxCell id="2iG0a1HMq23XKDqGNcqQ-1" value="Inputs" style="rounded=0;whiteSpace=wrap;html=1;verticalAlign=top;" vertex="1" parent="1">
          <mxGeometry x="280" y="120" width="120" height="240" as="geometry" />
        </mxCell>
        <mxCell id="2iG0a1HMq23XKDqGNcqQ-2" value="Mediators" style="rounded=0;whiteSpace=wrap;html=1;verticalAlign=top;" vertex="1" parent="1">
          <mxGeometry x="440" y="120" width="120" height="240" as="geometry" />
        </mxCell>
        <mxCell id="2iG0a1HMq23XKDqGNcqQ-3" value="Outcomes" style="rounded=0;whiteSpace=wrap;html=1;verticalAlign=top;" vertex="1" parent="1">
          <mxGeometry x="600" y="120" width="120" height="240" as="geometry" />
        </mxCell>
        <mxCell id="2iG0a1HMq23XKDqGNcqQ-4" value="Gender Moderation" style="rounded=0;whiteSpace=wrap;html=1;" vertex="1" parent="1">
          <mxGeometry x="280" y="40" width="440" height="40" as="geometry" />
        </mxCell>
        <mxCell id="2iG0a1HMq23XKDqGNcqQ-10" style="edgeStyle=orthogonalEdgeStyle;rounded=0;orthogonalLoop=1;jettySize=auto;html=1;exitX=1;exitY=0.5;exitDx=0;exitDy=0;entryX=0;entryY=0.5;entryDx=0;entryDy=0;" edge="1" parent="1" source="2iG0a1HMq23XKDqGNcqQ-5" target="2iG0a1HMq23XKDqGNcqQ-8">
          <mxGeometry relative="1" as="geometry" />
        </mxCell>
        <mxCell id="2iG0a1HMq23XKDqGNcqQ-11" style="edgeStyle=orthogonalEdgeStyle;rounded=0;orthogonalLoop=1;jettySize=auto;html=1;exitX=1;exitY=0.75;exitDx=0;exitDy=0;entryX=0;entryY=0.25;entryDx=0;entryDy=0;" edge="1" parent="1" source="2iG0a1HMq23XKDqGNcqQ-5" target="2iG0a1HMq23XKDqGNcqQ-9">
          <mxGeometry relative="1" as="geometry" />
        </mxCell>
        <mxCell id="2iG0a1HMq23XKDqGNcqQ-5" value="Flexible Working Hours" style="rounded=0;whiteSpace=wrap;html=1;" vertex="1" parent="1">
          <mxGeometry x="290" y="150" width="90" height="60" as="geometry" />
        </mxCell>
        <mxCell id="2iG0a1HMq23XKDqGNcqQ-14" style="edgeStyle=orthogonalEdgeStyle;rounded=0;orthogonalLoop=1;jettySize=auto;html=1;exitX=1;exitY=0.25;exitDx=0;exitDy=0;entryX=0;entryY=0.75;entryDx=0;entryDy=0;" edge="1" parent="1" source="2iG0a1HMq23XKDqGNcqQ-6" target="2iG0a1HMq23XKDqGNcqQ-8">
          <mxGeometry relative="1" as="geometry" />
        </mxCell>
        <mxCell id="2iG0a1HMq23XKDqGNcqQ-15" style="edgeStyle=orthogonalEdgeStyle;rounded=0;orthogonalLoop=1;jettySize=auto;html=1;exitX=1;exitY=0.75;exitDx=0;exitDy=0;entryX=0;entryY=0.75;entryDx=0;entryDy=0;" edge="1" parent="1" source="2iG0a1HMq23XKDqGNcqQ-6" target="2iG0a1HMq23XKDqGNcqQ-9">
          <mxGeometry relative="1" as="geometry" />
        </mxCell>
        <mxCell id="2iG0a1HMq23XKDqGNcqQ-6" value="Remote Work Options" style="rounded=0;whiteSpace=wrap;html=1;" vertex="1" parent="1">
          <mxGeometry x="295" y="240" width="90" height="60" as="geometry" />
        </mxCell>
        <mxCell id="2iG0a1HMq23XKDqGNcqQ-16" style="edgeStyle=orthogonalEdgeStyle;rounded=0;orthogonalLoop=1;jettySize=auto;html=1;exitX=1;exitY=0.25;exitDx=0;exitDy=0;entryX=0;entryY=0.25;entryDx=0;entryDy=0;" edge="1" parent="1" source="2iG0a1HMq23XKDqGNcqQ-7" target="2iG0a1HMq23XKDqGNcqQ-8">
          <mxGeometry relative="1" as="geometry" />
        </mxCell>
        <mxCell id="2iG0a1HMq23XKDqGNcqQ-17" style="edgeStyle=orthogonalEdgeStyle;rounded=0;orthogonalLoop=1;jettySize=auto;html=1;exitX=1;exitY=0.75;exitDx=0;exitDy=0;entryX=0;entryY=0.75;entryDx=0;entryDy=0;" edge="1" parent="1" source="2iG0a1HMq23XKDqGNcqQ-7" target="2iG0a1HMq23XKDqGNcqQ-9">
          <mxGeometry relative="1" as="geometry" />
        </mxCell>
        <mxCell id="2iG0a1HMq23XKDqGNcqQ-7" value="Wellness Programs" style="rounded=0;whiteSpace=wrap;html=1;" vertex="1" parent="1">
          <mxGeometry x="290" y="320" width="90" height="60" as="geometry" />
        </mxCell>
        <mxCell id="2iG0a1HMq23XKDqGNcqQ-8" value="Burnout" style="rounded=0;whiteSpace=wrap;html=1;" vertex="1" parent="1">
          <mxGeometry x="455" y="160" width="90" height="60" as="geometry" />
        </mxCell>
        <mxCell id="2iG0a1HMq23XKDqGNcqQ-9" value="Job Satisfaction" style="rounded=0;whiteSpace=wrap;html=1;" vertex="1" parent="1">
          <mxGeometry x="455" y="240" width="90" height="60" as="geometry" />
        </mxCell>
        <mxCell id="2iG0a1HMq23XKDqGNcqQ-18" value="Operational Efficiency&lt;div&gt;- Coding Errors&lt;/div&gt;&lt;div&gt;- delivery speed&lt;/div&gt;" style="rounded=0;whiteSpace=wrap;html=1;" vertex="1" parent="1">
          <mxGeometry x="615" y="150" width="90" height="60" as="geometry" />
        </mxCell>
        <mxCell id="2iG0a1HMq23XKDqGNcqQ-19" value="Retention&lt;div&gt;- intent to stay&lt;/div&gt;" style="rounded=0;whiteSpace=wrap;html=1;" vertex="1" parent="1">
          <mxGeometry x="615" y="260" width="90" height="60" as="geometry" />
        </mxCell>
      </root>
    </mxGraphModel>
  </diagram>
</mxfile>
